<?xml version="1.0" encoding="UTF-8" standalone="no"?>
<svg
   xmlns:dc="http://purl.org/dc/elements/1.1/"
   xmlns:cc="http://creativecommons.org/ns#"
   xmlns:rdf="http://www.w3.org/1999/02/22-rdf-syntax-ns#"
   xmlns:svg="http://www.w3.org/2000/svg"
   xmlns="http://www.w3.org/2000/svg"
   xmlns:sodipodi="http://sodipodi.sourceforge.net/DTD/sodipodi-0.dtd"
   xmlns:inkscape="http://www.inkscape.org/namespaces/inkscape"
   width="512px"
   height="512px"
   viewBox="0 0 512 512"
   version="1.1"
   id="SVGRoot"
   sodipodi:docname="favicon.svg"
   inkscape:version="1.0.1 (3bc2e813f5, 2020-09-07)">
  <defs
     id="defs50">
    <linearGradient
       id="a"
       x1="160.01"
       x2="100.01"
       y1="40.008"
       y2="180"
       gradientTransform="matrix(0.82571182,0,0,0.82571182,186.62887,126.62887)"
       gradientUnits="userSpaceOnUse">
      <stop
         stop-color="#37aee2"
         offset="0"
         id="stop4" />
      <stop
         stop-color="#1e96c8"
         offset="1"
         id="stop6" />
    </linearGradient>
  </defs>
  <sodipodi:namedview
     id="base"
     pagecolor="#ffffff"
     bordercolor="#666666"
     borderopacity="1.0"
     inkscape:pageopacity="0.0"
     inkscape:pageshadow="2"
     inkscape:zoom="0.7"
     inkscape:cx="284.68537"
     inkscape:cy="286.18671"
     inkscape:document-units="px"
     inkscape:current-layer="layer1"
     inkscape:document-rotation="0"
     showgrid="false"
     inkscape:window-width="1366"
     inkscape:window-height="705"
     inkscape:window-x="-8"
     inkscape:window-y="-8"
     inkscape:window-maximized="1" />
  <metadata
     id="metadata53">
    <rdf:RDF>
      <cc:Work
         rdf:about="">
        <dc:format>image/svg+xml</dc:format>
        <dc:type
           rdf:resource="http://purl.org/dc/dcmitype/StillImage" />
        <dc:title></dc:title>
      </cc:Work>
    </rdf:RDF>
  </metadata>
  <g
     inkscape:label="Слой 1"
     inkscape:groupmode="layer"
     id="layer1">
    <rect
       ry="120.66576"
       y="0"
       x="0"
       height="512"
       width="512"
       id="rect1440"
       style="font-variation-settings:'wght' 400;opacity:1;fill:#1c77ff;fill-opacity:1;stroke-width:4.04593;stroke-linejoin:round" />
    <path
       d="M 296.71428,256 H 327.25 v 57.40714 l 49.67142,28.70358 -15.26785,26.46428 -64.93929,-37.45714 V 256 M 93.142854,52.42857 H 378.14285 a 40.714286,40.714286 0 0 1 40.71429,40.714286 V 217.32143 c 25.24286,25.65 40.71428,60.86786 40.71428,99.75 a 142.5,142.5 0 0 1 -142.5,142.5 c -38.88214,0 -74.1,-15.47143 -99.75,-40.71429 H 93.142854 A 40.714286,40.714286 0 0 1 52.428575,378.14286 V 93.142856 A 40.714286,40.714286 0 0 1 93.142854,52.42857 m 0,264.64286 v 61.07143 h 95.067856 c -8.75357,-18.525 -13.63929,-39.28929 -13.63929,-61.07143 H 93.142855 m 0,-142.5 H 215.28571 V 113.5 H 93.142854 v 61.07143 m 284.999996,0 V 113.5 H 256 v 61.07143 H 378.14285 M 93.142854,276.35714 H 180.475 c 6.92142,-23.41071 19.74642,-44.37857 36.84642,-61.07143 H 93.142854 v 61.07143 M 317.07142,218.33928 a 98.732143,98.732143 0 0 0 -98.73214,98.73215 c 0,54.55714 44.175,98.73214 98.73214,98.73214 a 98.732143,98.732143 0 0 0 98.73215,-98.73214 c 0,-54.55714 -44.175,-98.73215 -98.73215,-98.73215 z"
       id="path21"
       style="fill:#ffffff;stroke-width:20.3571" />
  </g>
</svg>
